HIERARCHY
ROOT Hips
{
  OFFSET -35.4901 99.2528 17.4586
  CHANNELS 6 Xposition Yposition Zposition Zrotation Xrotation Yrotation
  JOINT LeftUpLeg
  {
    OFFSET 8.64259 1.95398 -2.38835
    CHANNELS 3 Zrotation Xrotation Yrotation
    JOINT LeftLeg
    {
      OFFSET 43.7702 0 0
      CHANNELS 3 Zrotation Xrotation Yrotation
      JOINT LeftFoot
      {
        OFFSET 40.6238 0 0
        CHANNELS 3 Zrotation Xrotation Yrotation
        JOINT LeftToeBase
        {
          OFFSET 12.7242 0 0
          CHANNELS 3 Zrotation Xrotation Yrotation
          End Site
          {
            OFFSET 0 0 0
          }
        }
      }
    }
  }
  JOINT RightUpLeg
  {
    OFFSET -8.2249 1.95398 -2.59336
    CHANNELS 3 Zrotation Xrotation Yrotation
    JOINT RightLeg
    {
      OFFSET 43.5653 0 0
      CHANNELS 3 Zrotation Xrotation Yrotation
      JOINT RightFoot
      {
        OFFSET 40.6238 0 0
        CHANNELS 3 Zrotation Xrotation Yrotation
        JOINT RightToeBase
        {
          OFFSET 12.7242 0 0
          CHANNELS 3 Zrotation Xrotation Yrotation
          End Site
          {
            OFFSET 0 0 0
          }
        }
      }
    }
  }
  JOINT Spine
  {
    OFFSET 0.165834 0.87714 6.61349
    CHANNELS 3 Zrotation Xrotation Yrotation
    JOINT Spine1
    {
      OFFSET 7.38963 1.71661e-005 0
      CHANNELS 3 Zrotation Xrotation Yrotation
      JOINT Spine2
      {
        OFFSET 11.9445 1.14441e-005 0
        CHANNELS 3 Zrotation Xrotation Yrotation
        JOINT Spine3
        {
          OFFSET 14.7254 4.19617e-005 0
          CHANNELS 3 Zrotation Xrotation Yrotation
          JOINT Spine4
          {
            OFFSET 10.9679 0 0
            CHANNELS 3 Zrotation Xrotation Yrotation
            JOINT RightShoulder
            {
              OFFSET 2.46616 -1.6653 3.69651
              CHANNELS 3 Zrotation Xrotation Yrotation
              JOINT RightArm
              {
                OFFSET 13.0012 0 0
                CHANNELS 3 Zrotation Xrotation Yrotation
                JOINT RightForeArm
                {
                  OFFSET 28.7848 1.52588e-005 0
                  CHANNELS 3 Zrotation Xrotation Yrotation
                  JOINT RightHand
                  {
                    OFFSET 26.5688 1.52588e-005 0
                    CHANNELS 3 Zrotation Xrotation Yrotation
                    End Site
                    {
                      OFFSET 0 0 0
                    }
                  }
                }
              }
            }
            JOINT LeftShoulder
            {
              OFFSET 2.38034 -1.29275 -3.7523
              CHANNELS 3 Zrotation Xrotation Yrotation
              JOINT LeftArm
              {
                OFFSET 16.3182 6.10351e-005 0
                CHANNELS 3 Zrotation Xrotation Yrotation
                JOINT LeftForeArm
                {
                  OFFSET 27.0901 0 0
                  CHANNELS 3 Zrotation Xrotation Yrotation
                  JOINT LeftHand
                  {
                    OFFSET 24.5451 1.52588e-005 0
                    CHANNELS 3 Zrotation Xrotation Yrotation
                    End Site
                    {
                      OFFSET 0 0 0
                    }
                  }
                }
              }
            }
            JOINT Neck
            {
              OFFSET 5.0226 -0.0266342 0
              CHANNELS 3 Zrotation Xrotation Yrotation
              JOINT Head
              {
                OFFSET 6.69364 2.86102e-005 0
                CHANNELS 3 Zrotation Xrotation Yrotation
                End Site
                {
                  OFFSET 0 0 0
                }
              }
            }
          }
        }
      }
    }
  }
}
MOTION
Frames:	6
Frame Time:	0.0416667
41.2187 88.7881 -203.257 -165.104 -86.8455 -159.777 -164.682 5.21365 101.684 -89.1209 4.85801 4.95639 61.8744 1.4126 4.83197 33.1128 3.55561 -6.97647 176.991 36.2772 100.336 -54.2912 -18.4854 0.257386 73.1339 -7.55057 -7.45938 13.4421 -2.04888 5.52878 -1.90669 7.96098 -91.4464 10.9022 -4.46482 -2.45661 -0.762983 -4.56858 -2.25749 -23.3214 -3.52046 -3.6852 -3.30871 -3.52046 -3.68521 93.8418 -29.7608 -99.1337 35.5103 13.9337 27.884 -56.3822 -35.9298 -81.3571 -47.18 12.2457 -43.0166 -86.5253 -49.7496 83.9015 -6.07824 29.273 -32.5174 76.2718 -7.63983 -82.6391 3.0831 -0.277581 -8.29453 19.4329 13.1199 0.229013 -15.6757 12.0788 5.10645 
40.7935 87.8378 -196.454 -177.361 -85.7944 -168.209 -167.153 17.1027 104.558 -99.1034 5.65691 7.23749 64.9722 2.82413 7.68742 30.6733 7.38278 -13.0766 175.673 31.5873 104.084 -57.8026 -17.3154 1.608 80.3035 -11.4106 -7.33474 12.2051 -2.43478 6.22965 -1.49446 8.25244 -91.8565 10.3022 -3.82612 -3.35646 -1.36705 -3.97006 -3.18484 -23.8921 -2.64154 -4.35018 -3.87945 -2.64154 -4.35019 93.1994 -32.3564 -99.7063 36.95 13.2715 15.6619 -38.8162 -26.5385 -69.5849 -27.3609 0.802254 -17.2902 -86.4311 -52.6421 84.4819 -12.6832 29.0211 -21.1519 78.8553 -6.74833 -82.5992 -1.00282 -0.215577 -13.9202 21.03 12.2186 0.790089 -14.7861 11.0435 4.93286 
40.831 87.3842 -189.334 170.921 -85.2527 -179.854 -171.627 26.9615 103.072 -102.833 6.2399 8.02194 67.3309 4.11943 8.0539 27.7624 8.04949 -13.1389 175.247 26.2916 103.818 -60.1311 -17.469 1.88192 87.591 -15.2403 -7.53293 10.4972 -2.87031 6.98636 -1.20528 8.33145 -91.9181 10.1475 -3.27606 -3.53172 -1.52369 -3.42824 -3.38422 -24.036 -2.06433 -4.35187 -4.02338 -2.06433 -4.35188 92.2873 -32.3549 -101.478 36.7582 11.9696 4.82669 -37.3946 -18.4781 -68.5644 -24.4824 1.77392 -19.9776 -85.8226 -53.073 85.429 -20.344 26.3438 -7.70652 78.8653 -8.2862 -82.9962 2.30321 -0.329045 -10.407 20.0753 11.0064 2.0684 -12.63 9.6365 4.25025 
41.1338 87.1754 -182.032 170.77 -85.5516 177.983 -174.472 35.4929 99.7202 -100.913 5.8137 7.72241 69.5482 5.22353 8.27807 27.6689 7.81978 -12.7332 175.495 21.0185 101.234 -61.2174 -17.1804 1.24527 94.8888 -18.4001 -5.69458 9.95809 -2.5383 6.38696 -0.7569 8.23301 -91.6954 10.3652 -2.28393 -3.16939 -1.30735 -2.42114 -3.06592 -23.8176 -1.22656 -3.7086 -3.80497 -1.22655 -3.70861 91.7886 -31.9529 -102.569 34.8621 10.6127 -3.53667 -33.5548 -26.8281 -71.697 -36.4504 1.83405 -15.5296 -84.8042 -52.9965 86.9041 -24.4501 25.3857 4.73717 78.1445 -12.1219 -83.3814 5.06721 -0.407276 -9.21642 18.6742 8.91103 1.20314 -11.5791 7.85386 5.21815 
41.5405 87.9588 -174.252 -171.58 -85.2896 -166.639 -175.608 40.341 96.9069 -92.799 2.86696 6.63516 72.0494 6.36424 7.23438 26.9204 6.56967 -10.4783 175.634 13.6099 98.0279 -58.7011 -19.8588 0.263249 97.278 -19.7345 -5.72018 10.3561 -2.90575 7.0425 0.0365184 8.10272 -91.3006 10.6555 -0.525882 -2.53769 -1.01777 -0.637032 -2.51211 -23.5331 0.260836 -2.57842 -3.52044 0.260837 -2.57842 91.9078 -30.1979 -102.894 33.3895 9.93167 -7.31241 -38.6937 -28.7238 -83.3835 -42.53 0.444668 -10.0959 -83.9055 -51.2756 88.0328 -25.0362 27.1853 15.8521 76.6413 -16.932 -83.5856 7.30299 -0.505181 -9.2663 15.8311 6.21647 -1.914 -9.72723 6.11743 6.79866 
41.9419 89.5517 -166.316 -152.833 -83.6278 -150.167 -176.244 41.5057 95.3224 -80.2722 0.504448 5.01834 71.251 6.08463 6.86746 28.1538 6.54741 -10.8105 175.056 5.1641 95.0814 -55.3972 -23.2269 -1.0775 94.2392 -18.9051 -7.72886 16.5095 -4.1026 9.64796 0.885515 8.05782 -90.9398 10.7651 1.32995 -1.99122 -0.906827 1.24104 -2.04781 -23.4396 1.86683 -1.49958 -3.4269 1.86683 -1.49958 91.6716 -26.536 -104.675 32.0307 11.9812 -6.76379 -35.4664 -17.4638 -81.7311 -32.5303 2.18034 -17.2497 -82.7133 -50.7491 89.7641 -22.0318 30.4322 24.0595 75.1888 -21.1206 -83.5496 8.25735 -0.504576 -8.81798 13.3016 4.28394 -3.14509 -8.59043 4.62697 6.16223 
